<mxfile host="app.diagrams.net" agent="Mozilla/5.0 (Macintosh; Intel Mac OS X 10_15_7) AppleWebKit/537.36 (KHTML, like Gecko) Chrome/131.0.0.0 Safari/537.36" version="26.0.2">
  <diagram name="第 1 页" id="LWjjfVmd3jnk-YyU-jLR">
    <mxGraphModel dx="3088" dy="708" grid="1" gridSize="10" guides="1" tooltips="1" connect="1" arrows="1" fold="1" page="1" pageScale="1" pageWidth="827" pageHeight="1169" math="0" shadow="0">
      <root>
        <mxCell id="0" />
        <mxCell id="1" parent="0" />
        <mxCell id="FfisPMWGfRinOZC7QWmt-2" value="" style="rounded=1;whiteSpace=wrap;html=1;fillColor=#fff2cc;strokeColor=#d6b656;" parent="1" vertex="1">
          <mxGeometry x="-450" y="80" width="210" height="250" as="geometry" />
        </mxCell>
        <mxCell id="bv4IY5npqPAWGDnXp7fx-20" style="edgeStyle=orthogonalEdgeStyle;rounded=0;orthogonalLoop=1;jettySize=auto;html=1;exitX=1;exitY=0.5;exitDx=0;exitDy=0;entryX=0;entryY=0.5;entryDx=0;entryDy=0;strokeWidth=1;" parent="1" source="bv4IY5npqPAWGDnXp7fx-1" target="bv4IY5npqPAWGDnXp7fx-9" edge="1">
          <mxGeometry relative="1" as="geometry" />
        </mxCell>
        <mxCell id="bv4IY5npqPAWGDnXp7fx-1" value="&lt;font style=&quot;font-size: 16px;&quot;&gt;Data Collection&lt;/font&gt;" style="rounded=1;whiteSpace=wrap;html=1;fillColor=#fff2cc;strokeColor=#d6b656;" parent="1" vertex="1">
          <mxGeometry x="-920" y="390" width="129" height="60" as="geometry" />
        </mxCell>
        <mxCell id="bv4IY5npqPAWGDnXp7fx-9" value="&lt;span style=&quot;font-size: 16px;&quot;&gt;Data Analysis&lt;/span&gt;" style="rounded=1;whiteSpace=wrap;html=1;fillColor=#fff2cc;strokeColor=#d6b656;" parent="1" vertex="1">
          <mxGeometry x="-690" y="390" width="129" height="60" as="geometry" />
        </mxCell>
        <mxCell id="bv4IY5npqPAWGDnXp7fx-21" style="edgeStyle=orthogonalEdgeStyle;rounded=0;orthogonalLoop=1;jettySize=auto;html=1;exitX=1;exitY=0.5;exitDx=0;exitDy=0;entryX=0;entryY=0.5;entryDx=0;entryDy=0;entryPerimeter=0;strokeWidth=1;" parent="1" source="bv4IY5npqPAWGDnXp7fx-9" target="bv4IY5npqPAWGDnXp7fx-38" edge="1">
          <mxGeometry relative="1" as="geometry">
            <mxPoint x="-413" y="420" as="targetPoint" />
          </mxGeometry>
        </mxCell>
        <mxCell id="bv4IY5npqPAWGDnXp7fx-22" value="&lt;font style=&quot;font-size: 15px;&quot;&gt;Data Analysis&lt;/font&gt;" style="swimlane;fontStyle=0;childLayout=stackLayout;horizontal=1;startSize=30;horizontalStack=0;resizeParent=1;resizeParentMax=0;resizeLast=0;collapsible=1;marginBottom=0;whiteSpace=wrap;html=1;" parent="1" vertex="1">
          <mxGeometry x="-718" y="500" width="185" height="130" as="geometry" />
        </mxCell>
        <mxCell id="bv4IY5npqPAWGDnXp7fx-23" value="&lt;ul&gt;&lt;li&gt;&lt;font style=&quot;font-size: 14px;&quot;&gt;Clean dirty data&lt;/font&gt;&lt;/li&gt;&lt;/ul&gt;" style="text;strokeColor=default;fillColor=none;align=left;verticalAlign=middle;spacingLeft=4;spacingRight=4;overflow=hidden;points=[[0,0.5],[1,0.5]];portConstraint=eastwest;rotatable=0;whiteSpace=wrap;html=1;" parent="bv4IY5npqPAWGDnXp7fx-22" vertex="1">
          <mxGeometry y="30" width="185" height="40" as="geometry" />
        </mxCell>
        <mxCell id="bv4IY5npqPAWGDnXp7fx-25" value="&lt;ul&gt;&lt;li&gt;&lt;span style=&quot;font-size: 14px; background-color: transparent; color: light-dark(rgb(0, 0, 0), rgb(255, 255, 255));&quot;&gt;Make sure data is meaningful&lt;/span&gt;&lt;/li&gt;&lt;/ul&gt;" style="text;strokeColor=default;fillColor=none;align=left;verticalAlign=middle;spacingLeft=4;spacingRight=4;overflow=hidden;points=[[0,0.5],[1,0.5]];portConstraint=eastwest;rotatable=0;whiteSpace=wrap;html=1;" parent="bv4IY5npqPAWGDnXp7fx-22" vertex="1">
          <mxGeometry y="70" width="185" height="60" as="geometry" />
        </mxCell>
        <mxCell id="bv4IY5npqPAWGDnXp7fx-37" value="&lt;h1 style=&quot;margin-top: 0px;&quot;&gt;AI Model prediction stock price Workflow chart&lt;/h1&gt;" style="text;html=1;whiteSpace=wrap;overflow=hidden;rounded=0;" parent="1" vertex="1">
          <mxGeometry x="-920" y="100" width="170" height="150" as="geometry" />
        </mxCell>
        <mxCell id="bv4IY5npqPAWGDnXp7fx-43" style="edgeStyle=orthogonalEdgeStyle;rounded=0;orthogonalLoop=1;jettySize=auto;html=1;exitX=1;exitY=0.5;exitDx=0;exitDy=0;exitPerimeter=0;" parent="1" source="bv4IY5npqPAWGDnXp7fx-38" edge="1">
          <mxGeometry relative="1" as="geometry">
            <mxPoint x="-200" y="420" as="targetPoint" />
          </mxGeometry>
        </mxCell>
        <mxCell id="bv4IY5npqPAWGDnXp7fx-38" value="&lt;font style=&quot;font-size: 14px;&quot;&gt;AI Model Prediction&lt;/font&gt;" style="shape=cylinder3;whiteSpace=wrap;html=1;boundedLbl=1;backgroundOutline=1;size=15;fillColor=#dae8fc;strokeColor=#6c8ebf;" parent="1" vertex="1">
          <mxGeometry x="-400" y="360" width="110" height="120" as="geometry" />
        </mxCell>
        <mxCell id="bv4IY5npqPAWGDnXp7fx-41" style="edgeStyle=orthogonalEdgeStyle;rounded=0;orthogonalLoop=1;jettySize=auto;html=1;exitX=0.5;exitY=1;exitDx=0;exitDy=0;entryX=0.5;entryY=0;entryDx=0;entryDy=0;" parent="1" source="bv4IY5npqPAWGDnXp7fx-39" target="bv4IY5npqPAWGDnXp7fx-40" edge="1">
          <mxGeometry relative="1" as="geometry" />
        </mxCell>
        <mxCell id="bv4IY5npqPAWGDnXp7fx-39" value="&lt;span style=&quot;font-size: 17px;&quot;&gt;Library&lt;/span&gt;" style="rounded=1;whiteSpace=wrap;html=1;fillColor=#d5e8d4;strokeColor=#82b366;" parent="1" vertex="1">
          <mxGeometry x="-402.5" y="100" width="115" height="60" as="geometry" />
        </mxCell>
        <mxCell id="bv4IY5npqPAWGDnXp7fx-40" value="&lt;span style=&quot;font-size: 17px;&quot;&gt;Train Model&lt;/span&gt;" style="rounded=1;whiteSpace=wrap;html=1;fillColor=#d5e8d4;strokeColor=#82b366;" parent="1" vertex="1">
          <mxGeometry x="-405" y="220" width="120" height="60" as="geometry" />
        </mxCell>
        <mxCell id="bv4IY5npqPAWGDnXp7fx-42" style="edgeStyle=orthogonalEdgeStyle;rounded=0;orthogonalLoop=1;jettySize=auto;html=1;exitX=0.5;exitY=1;exitDx=0;exitDy=0;entryX=0.5;entryY=0;entryDx=0;entryDy=0;entryPerimeter=0;" parent="1" source="bv4IY5npqPAWGDnXp7fx-40" target="bv4IY5npqPAWGDnXp7fx-38" edge="1">
          <mxGeometry relative="1" as="geometry" />
        </mxCell>
        <mxCell id="bv4IY5npqPAWGDnXp7fx-44" value="&lt;span style=&quot;font-size: 17px;&quot;&gt;User Interface&lt;/span&gt;" style="rounded=1;whiteSpace=wrap;html=1;fillColor=#f8cecc;strokeColor=#b85450;" parent="1" vertex="1">
          <mxGeometry x="220" y="390" width="120" height="60" as="geometry" />
        </mxCell>
        <mxCell id="bv4IY5npqPAWGDnXp7fx-58" style="edgeStyle=orthogonalEdgeStyle;rounded=0;orthogonalLoop=1;jettySize=auto;html=1;exitX=1;exitY=0.5;exitDx=0;exitDy=0;entryX=0;entryY=0.5;entryDx=0;entryDy=0;" parent="1" source="bv4IY5npqPAWGDnXp7fx-48" target="bv4IY5npqPAWGDnXp7fx-50" edge="1">
          <mxGeometry relative="1" as="geometry" />
        </mxCell>
        <mxCell id="bv4IY5npqPAWGDnXp7fx-48" value="&lt;span style=&quot;font-size: 17px;&quot;&gt;Validation&lt;/span&gt;" style="rounded=1;whiteSpace=wrap;html=1;fillColor=#f8cecc;strokeColor=#b85450;" parent="1" vertex="1">
          <mxGeometry x="-200" y="390" width="120" height="60" as="geometry" />
        </mxCell>
        <mxCell id="efaL_cL65SYKxLfAwnhs-2" style="edgeStyle=orthogonalEdgeStyle;rounded=0;orthogonalLoop=1;jettySize=auto;html=1;exitX=1;exitY=0.5;exitDx=0;exitDy=0;entryX=0;entryY=0.5;entryDx=0;entryDy=0;" edge="1" parent="1" source="bv4IY5npqPAWGDnXp7fx-50" target="bv4IY5npqPAWGDnXp7fx-44">
          <mxGeometry relative="1" as="geometry" />
        </mxCell>
        <mxCell id="efaL_cL65SYKxLfAwnhs-4" style="edgeStyle=orthogonalEdgeStyle;rounded=0;orthogonalLoop=1;jettySize=auto;html=1;exitX=0;exitY=0.75;exitDx=0;exitDy=0;entryX=1;entryY=0.5;entryDx=0;entryDy=0;" edge="1" parent="1" source="bv4IY5npqPAWGDnXp7fx-50" target="bv4IY5npqPAWGDnXp7fx-59">
          <mxGeometry relative="1" as="geometry" />
        </mxCell>
        <mxCell id="bv4IY5npqPAWGDnXp7fx-50" value="Correct" style="triangle;whiteSpace=wrap;html=1;rotation=0;" parent="1" vertex="1">
          <mxGeometry x="20" y="380" width="80" height="80" as="geometry" />
        </mxCell>
        <mxCell id="bv4IY5npqPAWGDnXp7fx-51" value="&lt;font style=&quot;font-size: 14px;&quot;&gt;No&lt;/font&gt;" style="text;html=1;align=center;verticalAlign=middle;whiteSpace=wrap;rounded=0;" parent="1" vertex="1">
          <mxGeometry x="-80" y="480" width="60" height="30" as="geometry" />
        </mxCell>
        <mxCell id="bv4IY5npqPAWGDnXp7fx-52" value="&lt;font style=&quot;font-size: 14px;&quot;&gt;Yes,&lt;/font&gt;&lt;div&gt;&lt;font style=&quot;font-size: 14px;&quot;&gt;show on user interface&lt;/font&gt;&lt;/div&gt;" style="text;html=1;align=center;verticalAlign=middle;whiteSpace=wrap;rounded=0;" parent="1" vertex="1">
          <mxGeometry x="100" y="360" width="100" height="50" as="geometry" />
        </mxCell>
        <mxCell id="bv4IY5npqPAWGDnXp7fx-59" value="Adjustment" style="ellipse;whiteSpace=wrap;html=1;fillColor=#f8cecc;strokeColor=#b85450;gradientColor=#ea6b66;" parent="1" vertex="1">
          <mxGeometry x="-190" y="550" width="110" height="65" as="geometry" />
        </mxCell>
        <mxCell id="bv4IY5npqPAWGDnXp7fx-61" style="edgeStyle=orthogonalEdgeStyle;rounded=0;orthogonalLoop=1;jettySize=auto;html=1;exitX=0.5;exitY=0;exitDx=0;exitDy=0;entryX=0.5;entryY=1;entryDx=0;entryDy=0;entryPerimeter=0;" parent="1" source="bv4IY5npqPAWGDnXp7fx-59" target="bv4IY5npqPAWGDnXp7fx-38" edge="1">
          <mxGeometry relative="1" as="geometry" />
        </mxCell>
        <mxCell id="bv4IY5npqPAWGDnXp7fx-74" style="edgeStyle=orthogonalEdgeStyle;rounded=0;orthogonalLoop=1;jettySize=auto;html=1;exitX=1;exitY=0.5;exitDx=0;exitDy=0;exitPerimeter=0;entryX=0;entryY=0.5;entryDx=0;entryDy=0;" parent="1" source="bv4IY5npqPAWGDnXp7fx-62" target="bv4IY5npqPAWGDnXp7fx-73" edge="1">
          <mxGeometry relative="1" as="geometry" />
        </mxCell>
        <mxCell id="bv4IY5npqPAWGDnXp7fx-62" value="&lt;font&gt;Decision support system&lt;/font&gt;" style="shape=cylinder3;whiteSpace=wrap;html=1;boundedLbl=1;backgroundOutline=1;size=15;fillColor=#dae8fc;strokeColor=#6c8ebf;" parent="1" vertex="1">
          <mxGeometry x="440" y="370" width="110" height="100" as="geometry" />
        </mxCell>
        <mxCell id="bv4IY5npqPAWGDnXp7fx-63" style="edgeStyle=orthogonalEdgeStyle;rounded=0;orthogonalLoop=1;jettySize=auto;html=1;exitX=1;exitY=0.5;exitDx=0;exitDy=0;entryX=0;entryY=0.5;entryDx=0;entryDy=0;entryPerimeter=0;" parent="1" source="bv4IY5npqPAWGDnXp7fx-44" target="bv4IY5npqPAWGDnXp7fx-62" edge="1">
          <mxGeometry relative="1" as="geometry" />
        </mxCell>
        <mxCell id="bv4IY5npqPAWGDnXp7fx-66" value="DSS" style="swimlane;fontStyle=0;childLayout=stackLayout;horizontal=1;startSize=30;horizontalStack=0;resizeParent=1;resizeParentMax=0;resizeLast=0;collapsible=1;marginBottom=0;whiteSpace=wrap;html=1;" parent="1" vertex="1">
          <mxGeometry x="402.5" y="520" width="185" height="210" as="geometry" />
        </mxCell>
        <mxCell id="bv4IY5npqPAWGDnXp7fx-67" value="Risk Management" style="text;strokeColor=default;fillColor=none;align=left;verticalAlign=middle;spacingLeft=4;spacingRight=4;overflow=hidden;points=[[0,0.5],[1,0.5]];portConstraint=eastwest;rotatable=0;whiteSpace=wrap;html=1;" parent="bv4IY5npqPAWGDnXp7fx-66" vertex="1">
          <mxGeometry y="30" width="185" height="30" as="geometry" />
        </mxCell>
        <mxCell id="bv4IY5npqPAWGDnXp7fx-68" value="Investment Goal Setting and Tracking" style="text;strokeColor=default;fillColor=none;align=left;verticalAlign=middle;spacingLeft=4;spacingRight=4;overflow=hidden;points=[[0,0.5],[1,0.5]];portConstraint=eastwest;rotatable=0;whiteSpace=wrap;html=1;" parent="bv4IY5npqPAWGDnXp7fx-66" vertex="1">
          <mxGeometry y="60" width="185" height="50" as="geometry" />
        </mxCell>
        <mxCell id="efaL_cL65SYKxLfAwnhs-7" value="&lt;span style=&quot;color: rgba(0, 0, 0, 0); font-family: monospace; font-size: 0px; text-wrap-mode: nowrap;&quot;&gt;%3CmxGraphModel%3E%3Croot%3E%3CmxCell%20id%3D%220%22%2F%3E%3CmxCell%20id%3D%221%22%20parent%3D%220%22%2F%3E%3CmxCell%20id%3D%222%22%20value%3D%22Investment%20Goal%20Setting%20and%20Tracking%22%20style%3D%22text%3BstrokeColor%3Dnone%3BfillColor%3Dnone%3Balign%3Dleft%3BverticalAlign%3Dmiddle%3BspacingLeft%3D4%3BspacingRight%3D4%3Boverflow%3Dhidden%3Bpoints%3D%5B%5B0%2C0.5%5D%2C%5B1%2C0.5%5D%5D%3BportConstraint%3Deastwest%3Brotatable%3D0%3BwhiteSpace%3Dwrap%3Bhtml%3D1%3B%22%20vertex%3D%221%22%20parent%3D%221%22%3E%3CmxGeometry%20x%3D%22402.5%22%20y%3D%22580%22%20width%3D%22185%22%20height%3D%2250%22%20as%3D%22geometry%22%2F%3E%3C%2FmxCell%3E%3C%2Froot%3E%3C%2FmxGraphModel%3E&lt;/span&gt;Portfolio Optimization" style="text;strokeColor=default;fillColor=none;align=left;verticalAlign=middle;spacingLeft=4;spacingRight=4;overflow=hidden;points=[[0,0.5],[1,0.5]];portConstraint=eastwest;rotatable=0;whiteSpace=wrap;html=1;" vertex="1" parent="bv4IY5npqPAWGDnXp7fx-66">
          <mxGeometry y="110" width="185" height="50" as="geometry" />
        </mxCell>
        <mxCell id="efaL_cL65SYKxLfAwnhs-9" value="Market Trends and Real-Time Insights" style="text;strokeColor=default;fillColor=none;align=left;verticalAlign=middle;spacingLeft=4;spacingRight=4;overflow=hidden;points=[[0,0.5],[1,0.5]];portConstraint=eastwest;rotatable=0;whiteSpace=wrap;html=1;" vertex="1" parent="bv4IY5npqPAWGDnXp7fx-66">
          <mxGeometry y="160" width="185" height="50" as="geometry" />
        </mxCell>
        <mxCell id="bv4IY5npqPAWGDnXp7fx-70" value="" style="endArrow=none;dashed=1;html=1;dashPattern=1 3;strokeWidth=2;rounded=0;entryX=0.5;entryY=1;entryDx=0;entryDy=0;entryPerimeter=0;exitX=0.5;exitY=0;exitDx=0;exitDy=0;" parent="1" source="bv4IY5npqPAWGDnXp7fx-66" target="bv4IY5npqPAWGDnXp7fx-62" edge="1">
          <mxGeometry width="50" height="50" relative="1" as="geometry">
            <mxPoint x="565" y="510" as="sourcePoint" />
            <mxPoint x="615" y="460" as="targetPoint" />
          </mxGeometry>
        </mxCell>
        <mxCell id="bv4IY5npqPAWGDnXp7fx-73" value="&lt;span style=&quot;font-size: 17px;&quot;&gt;Make decision&lt;/span&gt;" style="rounded=1;whiteSpace=wrap;html=1;fillColor=#e1d5e7;strokeColor=#9673a6;" parent="1" vertex="1">
          <mxGeometry x="640" y="390" width="120" height="60" as="geometry" />
        </mxCell>
        <mxCell id="bv4IY5npqPAWGDnXp7fx-75" value="Compare with real-time market" style="text;html=1;align=center;verticalAlign=middle;whiteSpace=wrap;rounded=0;" parent="1" vertex="1">
          <mxGeometry x="-80" y="350" width="100" height="50" as="geometry" />
        </mxCell>
        <mxCell id="efaL_cL65SYKxLfAwnhs-1" value="&lt;font style=&quot;font-size: 14px;&quot;&gt;Output&lt;/font&gt;" style="text;html=1;align=center;verticalAlign=middle;whiteSpace=wrap;rounded=0;" vertex="1" parent="1">
          <mxGeometry x="-280" y="390" width="60" height="30" as="geometry" />
        </mxCell>
        <mxCell id="efaL_cL65SYKxLfAwnhs-5" value="" style="endArrow=none;dashed=1;html=1;dashPattern=1 3;strokeWidth=2;rounded=0;entryX=0.5;entryY=1;entryDx=0;entryDy=0;exitX=0.5;exitY=0;exitDx=0;exitDy=0;" edge="1" parent="1" source="bv4IY5npqPAWGDnXp7fx-22" target="bv4IY5npqPAWGDnXp7fx-9">
          <mxGeometry width="50" height="50" relative="1" as="geometry">
            <mxPoint x="-630" y="500" as="sourcePoint" />
            <mxPoint x="-580" y="450" as="targetPoint" />
          </mxGeometry>
        </mxCell>
      </root>
    </mxGraphModel>
  </diagram>
</mxfile>
